<?xml version="1.0" encoding="utf-8"?>
<!-- Generator: Adobe Illustrator 24.0.1, SVG Export Plug-In . SVG Version: 6.00 Build 0)  -->
<svg version="1.1" id="Layer_1" xmlns="http://www.w3.org/2000/svg" xmlns:xlink="http://www.w3.org/1999/xlink" x="0px" y="0px"
	 viewBox="0 0 139.8 29.6" style="enable-background:new 0 0 139.8 29.6;" xml:space="preserve">
<style type="text/css">
	.st0{fill:#F04B26;}
	.st1{fill:#FFFFFF;}
</style>
<g>
	<path class="st0" d="M20.7,1.9c-2.2-2.2-5.7-2.2-7.9,0L0.2,14.5l12.7,12.7c1.6,1.6,4,2,6,1.2v-8.9h1.8v7.7c0,0,0.1,0,0.1-0.1
		l12.6-12.6L20.7,1.9z M11.1,18.7c-2.4,0-4.4-2-4.4-4.4v-0.1c0-2.4,2-4.4,4.4-4.4h5.1c0,0,0,0,0,0c0.3,0,0.6,0,0.9,0.1
		c1.1,0.2,2,0.9,2.6,1.7c0.2,0.3,0.4,0.6,0.5,0.9c0.2,0.5,0.3,1.1,0.3,1.7V16h-1.8v-1.8c0-0.7-0.2-1.2-0.6-1.7
		c-0.5-0.5-1.1-0.9-1.9-0.9c0,0,0,0,0,0h-0.8h-3.6h-0.8c-1.4,0-2.6,1.2-2.6,2.6v0.1c0,1.4,1.2,2.6,2.6,2.6h1.5
		c0.4,0.7,1,1.4,1.7,1.8H11.1z M22.3,18.7h-0.8h-0.9h-1.8H18h-0.8c0,0,0,0,0,0c-0.3,0-0.6,0-0.9-0.1c-1.1-0.2-2-0.9-2.6-1.7
		c-0.2-0.3-0.4-0.6-0.5-0.9c-0.2-0.5-0.3-1.1-0.3-1.7v-1.8h1.8v1.8c0,0.7,0.2,1.2,0.6,1.7c0.5,0.5,1.1,0.9,1.9,0.9c0,0,0,0,0,0H18
		h0.9h1.8h0.9h0.8c1.4,0,2.6-1.2,2.6-2.6v-0.1c0-1.4-1.2-2.6-2.6-2.6h-1.5c-0.4-0.7-1-1.4-1.7-1.8h3.2c2.4,0,4.4,2,4.4,4.4v0.1
		C26.7,16.7,24.8,18.7,22.3,18.7z"/>
	<g>
		<g>
			<path class="st0" d="M52,21.2c-1.5,0.9-3.3,1.3-5.5,1.3c-2.4,0-4.4-0.7-5.8-2s-2.1-3.2-2.1-5.6c0-2.4,0.8-4.3,2.3-5.8
				c1.5-1.5,3.6-2.3,6.2-2.3c1.6,0,3,0.2,4.3,0.7v3.2c-1.2-0.7-2.6-1-4.3-1c-1.4,0-2.6,0.5-3.5,1.4c-0.9,0.9-1.3,2.2-1.3,3.7
				c0,1.6,0.4,2.8,1.2,3.6c0.8,0.9,1.9,1.3,3.3,1.3c0.8,0,1.5-0.1,2-0.4v-3h-3v-2.7H52V21.2z"/>
			<path class="st0" d="M67.2,22.2h-3.7l-1.1-3.4H57l-1.1,3.4h-3.7L57.8,7h4.1L67.2,22.2z M61.6,16.2L60,11.1
				c-0.1-0.4-0.2-0.8-0.3-1.4h-0.1c0,0.4-0.1,0.9-0.3,1.3l-1.7,5.2H61.6z"/>
			<path class="st0" d="M80.2,15.6c0,4.6-2.1,6.9-6.4,6.9c-4.1,0-6.2-2.2-6.2-6.7V7H71v8.8c0,2.5,1,3.7,2.9,3.7
				c1.9,0,2.8-1.2,2.8-3.6V7h3.4V15.6z"/>
			<path class="st0" d="M85.8,17v5.2h-3.4V7h5.4c3.8,0,5.8,1.6,5.8,4.9c0,1.5-0.6,2.8-1.7,3.7c-1.1,0.9-2.6,1.4-4.4,1.4H85.8z
				 M85.8,9.6v4.7h1.3c1.8,0,2.7-0.8,2.7-2.4c0-1.6-0.9-2.3-2.7-2.3H85.8z"/>
			<path class="st1" d="M103.7,22.2h-9.1V7h3.4v12.4h5.6V22.2z"/>
			<path class="st1" d="M108.1,22.2h-3.4V7h3.4V22.2z"/>
			<path class="st1" d="M124.2,22.2h-3.5l-6.3-9.6c-0.4-0.6-0.6-1-0.8-1.3h0c0.1,0.5,0.1,1.4,0.1,2.5v8.4h-3.2V7h3.7l6,9.3
				c0.3,0.4,0.5,0.8,0.8,1.2h0c-0.1-0.4-0.1-1.1-0.1-2.1V7h3.2V22.2z"/>
			<path class="st1" d="M139.2,22.2h-4.3l-4.4-6.6c-0.1-0.1-0.2-0.4-0.4-0.8H130v7.5h-3.4V7h3.4v7.2h0.1c0.1-0.2,0.2-0.5,0.4-0.8
				l4.2-6.3h4.1l-5.3,7.3L139.2,22.2z"/>
		</g>
	</g>
</g>
</svg>
